# xmcd
# 
# Track frame offsets:
#     150
#     12244
#     25484
#     37806
#     50844
#     64717
#     76309
#     90969
#     104341
#     115636
#     134017
#     151195
# 
# Disc length: 2218
# 
# Revision: 2
# Processed by: cddbd v1.5.2PL0 Copyright (c) Steve Scherf et al.
# Submitted via: fre:ac v1.0.31
# 
DISCID=8e08a80c
DTITLE=3 - Die Volkstümliche Hitparade [CD3)
DYEAR=2008
DGENRE=Volksmusik
TTITLE0=Karl Moik - Servus, Pfüat Gott und auf Wiedersehn
TTITLE1=Stefan Mross - Heimwehmelodie
TTITLE2=Florian Silbereisen - A bisserl was geht immer
TTITLE3=Zellberg Buam - Ich schenk dir Rosen
TTITLE4=Marianne and Michael - Die kloane Tür zum Paradies
TTITLE5=Nockalm Quintett - Schuld sind deine himmelblauen Augen
TTITLE6=Günther Behrle - Männer in den besten Jahren
TTITLE7=Alpenoberkrainer - Guten Morgen
TTITLE8=Feldberger - So ändern sich die Zeiten
TTITLE9=Heino - Blau blüht der Enzian
TTITLE10=Rosi and Leo -  Kitzbühel, mein Augenstern (Das Kitzbühel-Lied, neu produziert)
TTITLE11=Captain Cook - Forest Hills
EXTD=
EXTT0=
EXTT1=
EXTT2=
EXTT3=
EXTT4=
EXTT5=
EXTT6=
EXTT7=
EXTT8=
EXTT9=
EXTT10=
EXTT11=
PLAYORDER=
